<svg width="109" height="26" viewBox="0 0 109 26" fill="none" xmlns="http://www.w3.org/2000/svg">
<path d="M7.524 25.416C6.252 25.416 5.124 25.236 4.14 24.876C3.156 24.492 2.328 24.012 1.656 23.436C0.984002 22.86 0.432002 22.284 1.59442e-06 21.708L2.736 19.332C3.192 20.076 3.816 20.736 4.608 21.312C5.424 21.888 6.408 22.176 7.56 22.176C8.52 22.176 9.276 21.972 9.828 21.564C10.404 21.156 10.692 20.652 10.692 20.052C10.692 19.524 10.512 19.116 10.152 18.828C9.792 18.516 9.324 18.252 8.748 18.036C8.172 17.82 7.536 17.628 6.84 17.46C6.168 17.292 5.484 17.088 4.788 16.848C4.092 16.584 3.444 16.26 2.844 15.876C2.268 15.492 1.8 15 1.44 14.4C1.08 13.8 0.900002 13.056 0.900002 12.168C0.900002 10.608 1.5 9.36001 2.7 8.42401C3.9 7.48801 5.472 7.02001 7.416 7.02001C8.808 7.02001 10.08 7.29601 11.232 7.84801C12.384 8.40001 13.284 9.22801 13.932 10.332L11.448 12.24C10.968 11.52 10.368 10.98 9.648 10.62C8.928 10.26 8.148 10.08 7.308 10.08C6.54 10.08 5.892 10.236 5.364 10.548C4.86 10.86 4.608 11.268 4.608 11.772C4.608 12.156 4.728 12.468 4.968 12.708C5.208 12.948 5.58 13.164 6.084 13.356C6.588 13.548 7.224 13.74 7.992 13.932C8.712 14.1 9.456 14.304 10.224 14.544C10.992 14.784 11.7 15.108 12.348 15.516C13.02 15.9 13.56 16.428 13.968 17.1C14.4 17.748 14.616 18.588 14.616 19.62C14.616 20.772 14.316 21.792 13.716 22.68C13.14 23.544 12.312 24.216 11.232 24.696C10.176 25.176 8.94 25.416 7.524 25.416ZM14.7853 25.092V7.34401H18.7813V25.092H14.7853ZM14.6053 4.42801V9.53674e-06H18.9613V4.42801H14.6053ZM25.8826 25.416C24.6106 25.416 23.4826 25.236 22.4986 24.876C21.5146 24.492 20.6866 24.012 20.0146 23.436C19.3426 22.86 18.7906 22.284 18.3586 21.708L21.0946 19.332C21.5506 20.076 22.1746 20.736 22.9666 21.312C23.7826 21.888 24.7666 22.176 25.9186 22.176C26.8786 22.176 27.6346 21.972 28.1866 21.564C28.7626 21.156 29.0506 20.652 29.0506 20.052C29.0506 19.524 28.8706 19.116 28.5106 18.828C28.1506 18.516 27.6826 18.252 27.1066 18.036C26.5306 17.82 25.8946 17.628 25.1986 17.46C24.5266 17.292 23.8426 17.088 23.1466 16.848C22.4506 16.584 21.8026 16.26 21.2026 15.876C20.6266 15.492 20.1586 15 19.7986 14.4C19.4386 13.8 19.2586 13.056 19.2586 12.168C19.2586 10.608 19.8586 9.36001 21.0586 8.42401C22.2586 7.48801 23.8306 7.02001 25.7746 7.02001C27.1666 7.02001 28.4386 7.29601 29.5906 7.84801C30.7426 8.40001 31.6426 9.22801 32.2906 10.332L29.8066 12.24C29.3266 11.52 28.7266 10.98 28.0066 10.62C27.2866 10.26 26.5066 10.08 25.6666 10.08C24.8986 10.08 24.2506 10.236 23.7226 10.548C23.2186 10.86 22.9666 11.268 22.9666 11.772C22.9666 12.156 23.0866 12.468 23.3266 12.708C23.5666 12.948 23.9386 13.164 24.4426 13.356C24.9466 13.548 25.5826 13.74 26.3506 13.932C27.0706 14.1 27.8146 14.304 28.5826 14.544C29.3506 14.784 30.0586 15.108 30.7066 15.516C31.3786 15.9 31.9186 16.428 32.3266 17.1C32.7586 17.748 32.9746 18.588 32.9746 19.62C32.9746 20.772 32.6746 21.792 32.0746 22.68C31.4986 23.544 30.6706 24.216 29.5906 24.696C28.5346 25.176 27.2986 25.416 25.8826 25.416ZM33.1439 25.092V7.34401H37.1399V25.092H33.1439ZM32.9639 4.42801V9.53674e-06H37.3199V4.42801H32.9639ZM38.1932 25.092V7.34401H42.1892V11.952L41.3252 12.456C41.5412 11.424 41.8412 10.56 42.2252 9.86401C42.6332 9.16801 43.1012 8.61601 43.6292 8.20801C44.1572 7.77601 44.7212 7.47601 45.3212 7.30801C45.9452 7.11601 46.5692 7.02001 47.1932 7.02001C48.1532 7.02001 49.0532 7.21201 49.8932 7.59601C50.7332 7.95601 51.4412 8.55601 52.0172 9.39601C52.6172 10.212 53.0252 11.328 53.2412 12.744L50.9012 13.392C51.2612 11.856 51.7652 10.632 52.4132 9.72001C53.0612 8.78401 53.8172 8.10001 54.6812 7.66801C55.5692 7.23601 56.5292 7.02001 57.5612 7.02001C59.0732 7.02001 60.2852 7.35601 61.1972 8.02801C62.1332 8.67601 62.8172 9.54001 63.2492 10.62C63.6812 11.676 63.8972 12.816 63.8972 14.04V25.092H59.9012V15.012C59.9012 14.028 59.7812 13.2 59.5412 12.528C59.3252 11.856 58.9772 11.352 58.4972 11.016C58.0172 10.656 57.4052 10.476 56.6612 10.476C55.8692 10.476 55.2092 10.68 54.6812 11.088C54.1532 11.472 53.7452 12.072 53.4572 12.888C53.1932 13.704 53.0612 14.712 53.0612 15.912V25.092H49.0652V14.832C49.0652 13.368 48.7892 12.276 48.2372 11.556C47.6852 10.836 46.9052 10.476 45.8972 10.476C45.1052 10.476 44.4332 10.68 43.8812 11.088C43.3292 11.496 42.9092 12.108 42.6212 12.924C42.3332 13.716 42.1892 14.712 42.1892 15.912V25.092H38.1932ZM76.2053 25.092L75.9173 22.104V13.896C75.9173 12.744 75.5693 11.88 74.8733 11.304C74.1773 10.704 73.2053 10.404 71.9573 10.404C70.9973 10.404 70.0493 10.596 69.1133 10.98C68.2013 11.34 67.3613 11.904 66.5933 12.672L64.3613 10.044C65.5133 8.96401 66.7373 8.19601 68.0333 7.74001C69.3293 7.26001 70.7453 7.02001 72.2813 7.02001C74.6813 7.02001 76.5413 7.63201 77.8613 8.85601C79.2053 10.056 79.8773 11.736 79.8773 13.896V25.092H76.2053ZM70.6973 25.416C69.3773 25.416 68.2013 25.176 67.1693 24.696C66.1613 24.216 65.3693 23.544 64.7933 22.68C64.2413 21.816 63.9653 20.808 63.9653 19.656C63.9653 18.672 64.1693 17.82 64.5773 17.1C65.0093 16.38 65.5613 15.816 66.2333 15.408C66.8093 15.048 67.4813 14.796 68.2493 14.652C69.0173 14.484 69.8213 14.4 70.6613 14.4H76.2413V17.388H71.2373C70.8053 17.388 70.3733 17.436 69.9413 17.532C69.5093 17.604 69.1253 17.748 68.7893 17.964C68.5493 18.156 68.3453 18.396 68.1773 18.684C68.0333 18.972 67.9613 19.308 67.9613 19.692C67.9613 20.46 68.2493 21.072 68.8253 21.528C69.4253 21.96 70.2173 22.176 71.2013 22.176C72.0653 22.176 72.8453 21.984 73.5413 21.6C74.2613 21.216 74.8373 20.688 75.2693 20.016C75.7013 19.344 75.9173 18.588 75.9173 17.748L77.1413 19.728C76.8533 20.976 76.3973 22.032 75.7733 22.896C75.1493 23.736 74.4053 24.372 73.5413 24.804C72.6773 25.212 71.7293 25.416 70.6973 25.416ZM80.7393 25.092V7.34401H84.7713V12.132L84.0153 12.24C84.1353 11.208 84.4833 10.308 85.0593 9.54001C85.6353 8.74801 86.3313 8.13601 87.1473 7.70401C87.9873 7.24801 88.8153 7.02001 89.6313 7.02001C90.2073 7.02001 90.7593 7.09201 91.2873 7.23601C91.8153 7.38001 92.3673 7.62001 92.9433 7.95601L90.9993 11.556C90.7353 11.388 90.3873 11.256 89.9553 11.16C89.5473 11.04 89.1513 10.98 88.7673 10.98C88.2633 10.98 87.7593 11.076 87.2553 11.268C86.7753 11.46 86.3433 11.76 85.9593 12.168C85.5753 12.552 85.2873 13.056 85.0953 13.68C84.9753 14.016 84.8793 14.46 84.8073 15.012C84.7593 15.54 84.7353 16.284 84.7353 17.244V25.092H80.7393ZM99.2641 25.416C97.5841 25.416 96.0721 25.02 94.7281 24.228C93.3841 23.436 92.3281 22.344 91.5601 20.952C90.8161 19.56 90.4441 17.976 90.4441 16.2C90.4441 14.424 90.8161 12.84 91.5601 11.448C92.3281 10.056 93.3721 8.97601 94.6921 8.20801C96.0361 7.41601 97.5601 7.02001 99.2641 7.02001C100.992 7.02001 102.504 7.41601 103.8 8.20801C105.12 8.97601 106.164 10.056 106.932 11.448C107.7 12.84 108.084 14.424 108.084 16.2C108.084 17.976 107.7 19.56 106.932 20.952C106.188 22.344 105.144 23.436 103.8 24.228C102.48 25.02 100.968 25.416 99.2641 25.416ZM99.3001 21.888C100.284 21.888 101.136 21.66 101.856 21.204C102.576 20.748 103.128 20.088 103.512 19.224C103.896 18.36 104.088 17.352 104.088 16.2C104.088 15.024 103.896 14.016 103.512 13.176C103.128 12.312 102.576 11.652 101.856 11.196C101.136 10.74 100.284 10.512 99.3001 10.512C98.2681 10.512 97.3921 10.752 96.6721 11.232C95.9521 11.688 95.4001 12.336 95.0161 13.176C94.6321 14.016 94.4401 15.024 94.4401 16.2C94.4401 17.352 94.6321 18.36 95.0161 19.224C95.4001 20.088 95.9521 20.748 96.6721 21.204C97.3921 21.66 98.2681 21.888 99.3001 21.888Z" fill="#16A376"/>
</svg>
